<svg xmlns="http://www.w3.org/2000/svg" viewBox="0 0 100 100" fill="#ff6719">
  <path d="M0 0h100v100H0"/>
  <path fill="#fff" d="m9.55 71.58 12.34-56.93c.23-1.08 1.3-1.77 2.38-1.53l52.79 11.44c1.08.23 1.77 1.3 1.53 2.38L66.25 83.87a2.002 2.002 0 0 1-2.38 1.53L11.08 73.96a1.994 1.994 0 0 1-1.53-2.38M28.07 87.92c-1.65 0-3-1.35-3-3V25.97c0-1.65 1.35-3 3-3H84.5c1.65 0 3 1.35 3 3v58.95c0 1.65-1.35 3-3 3H28.07z"/>
  <path d="M84.5 23.97c1.1 0 2 .9 2 2v58.95c0 1.1-.9 2-2 2H28.07c-1.1 0-2-.9-2-2V25.97c0-1.1.9-2 2-2H84.5m0-2H28.07c-2.21 0-4 1.79-4 4v58.95c0 2.21 1.79 4 4 4H84.5c2.21 0 4-1.79 4-4V25.97c0-2.21-1.79-4-4-4M38.33 34.95h35.91v5.03H38.33v-5.03zm0 18.36h35.91v22.64L56.28 65.87 38.33 75.95V53.31zm0-9.18h35.91v5.03H38.33v-5.03z"/>
</svg>
