<?xml version="1.0" encoding="utf-8"?>
<!-- Generator: Adobe Adobe Illustrator 24.2.0, SVG Export Plug-In . SVG Version: 6.00 Build 0)  -->
<svg version="1.1" id="Layer_1" xmlns="http://www.w3.org/2000/svg" xmlns:xlink="http://www.w3.org/1999/xlink" x="0px" y="0px"
	 width="100px" height="100px" viewBox="0 0 100 100" style="enable-background:new 0 0 100 100;" xml:space="preserve">
<style type="text/css">
	.st0{fill:#FFFFFF;}
	.st1{fill:#FF6719;}
	.st2{fill-rule:evenodd;clip-rule:evenodd;fill:#FF681A;}
</style>
<rect class="st1" width="100" height="100"/>
<g>
	<path class="st0" d="M9.55,71.58l12.34-56.93c0.23-1.08,1.3-1.77,2.38-1.53l52.79,11.44c1.08,0.23,1.77,1.3,1.53,2.38L66.25,83.87
		c-0.23,1.08-1.3,1.76-2.38,1.53L11.08,73.96C10,73.73,9.31,72.66,9.55,71.58z"/>
	<g>
		<path class="st0" d="M28.07,87.92c-1.65,0-3-1.35-3-3V25.97c0-1.65,1.35-3,3-3H84.5c1.65,0,3,1.35,3,3v58.95c0,1.65-1.35,3-3,3
			H28.07z"/>
		<path class="st1" d="M84.5,23.97c1.1,0,2,0.9,2,2v58.95c0,1.1-0.9,2-2,2H28.07c-1.1,0-2-0.9-2-2V25.97c0-1.1,0.9-2,2-2H84.5
			 M84.5,21.97H28.07c-2.21,0-4,1.79-4,4v58.95c0,2.21,1.79,4,4,4H84.5c2.21,0,4-1.79,4-4V25.97C88.5,23.76,86.71,21.97,84.5,21.97
			L84.5,21.97z"/>
	</g>
	<g>
		<path class="st2" d="M38.33,34.95h35.91v5.03H38.33V34.95z M38.33,53.31h35.91v22.64L56.28,65.87L38.33,75.95V53.31z M38.33,44.13
			h35.91v5.03H38.33C38.33,49.16,38.33,44.13,38.33,44.13z"/>
	</g>
</g>
</svg>
