<?xml version="1.0" standalone="no"?>
<!DOCTYPE svg PUBLIC "-//W3C//DTD SVG 20010904//EN"
 "http://www.w3.org/TR/2001/REC-SVG-20010904/DTD/svg10.dtd">
<svg version="1.0" xmlns="http://www.w3.org/2000/svg"
 width="700.000000pt" height="700.000000pt" viewBox="0 0 700.000000 700.000000"
 preserveAspectRatio="xMidYMid meet">
<metadata>
Created by potrace 1.14, written by Peter Selinger 2001-2017
</metadata>
<g transform="translate(0.000000,700.000000) scale(0.100000,-0.100000)"
fill="#000000" stroke="none">
<path d="M0 3500 l0 -3500 3500 0 3500 0 0 3500 0 3500 -3500 0 -3500 0 0
-3500z m3135 2270 c764 -166 1392 -303 1394 -306 2 -2 -585 -4 -1306 -4 -1452
0 -1359 4 -1441 -66 -23 -19 -53 -60 -69 -92 l-28 -57 -3 -1807 c-1 -995 -4
-1808 -7 -1808 -31 0 -932 204 -947 214 -35 25 -58 69 -58 111 0 62 866 4039
886 4070 28 43 62 56 129 51 33 -2 685 -140 1450 -306z m2840 -464 c19 -8 44
-30 55 -48 20 -33 20 -44 20 -2136 0 -2324 5 -2141 -63 -2182 -31 -20 -66 -20
-2045 -20 -2224 0 -2051 -5 -2092 63 -20 31 -20 67 -20 2137 0 2093 0 2105 20
2138 40 66 -112 61 2088 62 1721 0 2007 -2 2037 -14z"/>
<path d="M2680 4375 l0 -175 1260 0 1260 0 0 175 0 175 -1260 0 -1260 0 0
-175z"/>
<path d="M2680 3735 l0 -175 1260 0 1260 0 0 175 0 175 -1260 0 -1260 0 0
-175z"/>
<path d="M2680 2480 c0 -434 4 -790 8 -790 5 0 288 157 630 349 l622 349 622
-349 c343 -192 626 -349 630 -349 5 0 8 356 8 790 l0 790 -1260 0 -1260 0 0
-790z"/>
</g>
</svg>
